<svg id="Capa_1" enable-background="new 0 0 512 512" height="512" viewBox="0 0 512 512" width="512" xmlns="http://www.w3.org/2000/svg"><path d="m494.5 103.5c9.649 0 17.5-7.851 17.5-17.5v-20c0-9.649-7.851-17.5-17.5-17.5h-219.755c-4.142 0-7.5 3.358-7.5 7.5s3.358 7.5 7.5 7.5h219.755c1.378 0 2.5 1.122 2.5 2.5v20c0 1.378-1.122 2.5-2.5 2.5-31.543 0-302.198-.001-325 0-1.378 0-2.5-1.122-2.5-2.5v-20c0-1.378 1.122-2.5 2.5-2.5h70.394c4.142 0 7.5-3.358 7.5-7.5s-3.358-7.5-7.5-7.5h-70.394c-9.649 0-17.5 7.851-17.5 17.5v20c0 3.358.967 6.487 2.614 9.154-12.49 3.728-23.865 9.457-33.305 18.215-3.112 2.887-5.988 5.997-8.792 9.505-2.586 3.236-2.059 7.956 1.177 10.541 1.674 1.551 7.018 2.802 10.541-1.177 2.334-2.921 4.714-5.497 7.276-7.873 15.048-13.963 37.491-20.14 76.488-20.813v14.945c-29.425.235-52.019 3.625-66.286 16.863-15.643 14.926-19.327 36.43-42.523 47.255-13.496 6.401-30.198 6.84-46.35 2.779-3.138-1.607-5.865-2.175-5.462-9.092 1.607-3.137 2.175-5.867 9.092-5.462 18.506 4.272 34.312 2.931 47.321-9.598 2.896-2.962 2.841-7.71-.121-10.606s-7.71-2.842-10.606.121c-7.51 7.594-19.323 8.841-32.963 5.53-10.379-2.842-24.462 3.891-27.278 16.387-2.838 10.379 3.893 24.459 16.388 27.275 17.78 4.625 38.968 4.515 56.327-3.743 26.81-12.52 30.237-32.525 46.378-49.85 7.824-7.259 20.126-10.642 36.095-12.034-.657 2.111-1.011 4.354-1.011 6.678 0 5.758 2.177 11.016 5.747 15-3.571 3.984-5.747 9.242-5.747 15s2.177 11.016 5.747 15c-3.571 3.984-5.747 9.242-5.747 15 0 2.629.458 5.153 1.29 7.5h-18.79c-9.649 0-17.5 7.851-17.5 17.5v22.5h-134.5c-9.649 0-17.5 7.851-17.5 17.5v20c0 9.649 7.851 17.5 17.5 17.5h18.79c-.833 2.347-1.29 4.871-1.29 7.5 0 5.758 2.177 11.016 5.747 15-3.57 3.984-5.747 9.242-5.747 15s2.177 11.016 5.747 15c-3.57 3.984-5.747 9.242-5.747 15s2.177 11.016 5.747 15c-3.57 3.984-5.747 9.242-5.747 15 0 2.629.458 5.153 1.29 7.5h-18.79c-9.649 0-17.5 7.851-17.5 17.5v20c0 9.649 7.851 17.5 17.5 17.5 103.529.001 377.499-.005 477 0 9.649 0 17.5-7.851 17.5-17.5v-20c0-9.649-7.851-17.5-17.5-17.5h-18.79c.833-2.347 1.29-4.871 1.29-7.5 0-5.758-2.177-11.016-5.747-15 3.571-3.984 5.747-9.242 5.747-15s-2.177-11.016-5.747-15c3.571-3.984 5.747-9.242 5.747-15s-2.177-11.016-5.747-15c3.571-3.984 5.747-9.242 5.747-15 0-2.629-.458-5.153-1.29-7.5h18.79c9.649 0 17.5-7.851 17.5-17.5 0-15.044 0-45.276 0-60 0-9.649-7.851-17.5-17.5-17.5h-18.79c.833-2.347 1.29-4.871 1.29-7.5 0-5.758-2.177-11.016-5.747-15 3.571-3.984 5.747-9.242 5.747-15s-2.177-11.016-5.747-15c3.571-3.984 5.747-9.242 5.747-15 0-11.902-9.291-21.669-21-22.444v-15.056zm-479.5 182.5v-20c0-1.378 1.122-2.5 2.5-2.5h325c1.378 0 2.5 1.122 2.5 2.5v20c0 1.378-1.122 2.5-2.5 2.5h-325c-1.378 0-2.5-1.122-2.5-2.5zm287.5 17.5c4.136 0 7.5 3.364 7.5 7.5s-3.364 7.5-7.5 7.5h-245c-4.136 0-7.5-3.364-7.5-7.5s3.364-7.5 7.5-7.5zm152 30c4.136 0 7.5 3.364 7.5 7.5s-3.364 7.5-7.5 7.5h-130.79c.833-2.347 1.29-4.871 1.29-7.5s-.458-5.153-1.29-7.5zm7.5 37.5c0 4.136-3.364 7.5-7.5 7.5h-130.79c.833-2.347 1.29-4.871 1.29-7.5s-.458-5.153-1.29-7.5h130.79c4.136 0 7.5 3.364 7.5 7.5zm-404.5 7.5c-4.136 0-7.5-3.364-7.5-7.5s3.364-7.5 7.5-7.5h245c4.136 0 7.5 3.364 7.5 7.5s-3.364 7.5-7.5 7.5zm-7.5-37.5c0-4.136 3.364-7.5 7.5-7.5h245c4.136 0 7.5 3.364 7.5 7.5s-3.364 7.5-7.5 7.5h-245c-4.136 0-7.5-3.364-7.5-7.5zm-35 105v-20c0-1.378 1.122-2.5 2.5-2.5h196.351c4.142 0 7.5-3.358 7.5-7.5s-3.358-7.5-7.5-7.5h-156.351c-4.136 0-7.5-3.364-7.5-7.5s3.364-7.5 7.5-7.5h245c4.136 0 7.5 3.364 7.5 7.5s-3.364 7.5-7.5 7.5h-53.542c-4.142 0-7.5 3.358-7.5 7.5s3.358 7.5 7.5 7.5h93.542c1.378 0 2.5 1.122 2.5 2.5v20c0 1.378-1.122 2.5-2.5 2.5h-325c-1.378 0-2.5-1.122-2.5-2.5zm482-20v20c0 1.378-1.122 2.5-2.5 2.5h-134.7c.118-.819.2-1.649.2-2.5v-20c0-.851-.082-1.681-.2-2.5h134.7c1.378 0 2.5 1.122 2.5 2.5zm-173.29-17.5c.833-2.347 1.29-4.871 1.29-7.5s-.458-5.153-1.29-7.5h130.79c4.136 0 7.5 3.364 7.5 7.5s-3.364 7.5-7.5 7.5zm138.29-97.5c0 4.136-3.364 7.5-7.5 7.5h-130.79c.833-2.347 1.29-4.871 1.29-7.5s-.458-5.153-1.29-7.5h130.79c4.136 0 7.5 3.364 7.5 7.5zm32.5-22.5h-134.7c.118-.819.2-1.649.2-2.5v-20c0-.851-.082-1.681-.2-2.5h137.2v22.5c0 1.378-1.122 2.5-2.5 2.5zm2.5-62.5v22.5h-330v-22.5c0-1.378 1.122-2.5 2.5-2.5h325c1.378 0 2.5 1.122 2.5 2.5zm-287.5-17.5c-4.136 0-7.5-3.364-7.5-7.5s3.364-7.5 7.5-7.5h151.925c4.142 0 7.5-3.358 7.5-7.5s-3.358-7.5-7.5-7.5h-151.925c-4.136 0-7.5-3.364-7.5-7.5s3.364-7.5 7.5-7.5h245c4.136 0 7.5 3.364 7.5 7.5s-3.364 7.5-7.5 7.5h-57.84c-4.142 0-7.5 3.358-7.5 7.5s3.358 7.5 7.5 7.5h57.84c4.136 0 7.5 3.364 7.5 7.5s-3.364 7.5-7.5 7.5zm252.5-67.5c0 4.136-3.364 7.5-7.5 7.5h-245c-4.136 0-7.5-3.364-7.5-7.5s3.364-7.5 7.5-7.5h245c4.136 0 7.5 3.364 7.5 7.5zm-21-22.5h-218v-15h218z"/></svg>