<svg id="Capa_1" enable-background="new 0 0 512 512" height="512" viewBox="0 0 512 512" width="512" xmlns="http://www.w3.org/2000/svg"><g><path d="m476.949 56.975h-30.304v-24.61c0-17.82-14.498-32.318-32.318-32.318h-316.653c-17.82 0-32.318 14.498-32.318 32.318v24.609h-30.305c-19.327.001-35.051 15.724-35.051 35.051v292.086c0 19.327 15.724 35.052 35.051 35.052h170.816c-2.805 13.635-8.568 26.472-16.952 37.648h-29.954c-15.203 0-27.571 12.368-27.571 27.57 0 15.203 12.368 27.571 27.571 27.571h194.077c15.203 0 27.571-12.368 27.571-27.571 0-15.202-12.368-27.57-27.571-27.57h-29.954c-8.384-11.176-14.147-24.013-16.952-37.648h170.816c19.327 0 35.051-15.725 35.051-35.052v-292.086c.001-19.327-15.723-35.05-35.05-35.05zm-379.275-41.928h316.652c9.549 0 17.318 7.769 17.318 17.318v209.407c0 4.143 3.358 7.5 7.5 7.5s7.5-3.357 7.5-7.5v-169.797h30.304c11.056 0 20.051 8.995 20.051 20.051v257.243h-50.355v-72.433c0-4.143-3.358-7.5-7.5-7.5s-7.5 3.357-7.5 7.5v72.433h-25.12v-290.151c0-9.363-7.618-16.98-16.981-16.98h-267.087c-9.363 0-16.981 7.617-16.981 16.98v290.15h-25.12v-316.903c0-9.55 7.77-17.318 17.319-17.318zm188.614 334.222 26.596-15.354c4.956-2.862 8.035-8.195 8.035-13.919v-56.404c0-5.701-3.094-11.064-8.036-13.918l-48.847-28.202c-4.958-2.861-11.115-2.861-16.072 0l-48.848 28.202c-4.936 2.85-8.035 8.211-8.035 13.918v56.404c0 5.724 3.079 11.057 8.036 13.919l26.595 15.354h-105.237v-204.808h29.435c4.142 0 7.5-3.357 7.5-7.5s-3.358-7.5-7.5-7.5h-29.435v-17.924h93.945v17.924h-29.447c-4.142 0-7.5 3.357-7.5 7.5s3.358 7.5 7.5 7.5h29.658c.963 6.665 5.513 12.168 11.635 14.494v9.104c0 4.832 1.855 9.402 5.224 12.868l6.512 6.698c2.742 2.819 6.567 4.436 10.499 4.441v7.251c0 4.143 3.358 7.5 7.5 7.5s7.5-3.357 7.5-7.5v-7.251c3.932-.005 7.757-1.623 10.5-4.442l6.512-6.698c3.369-3.465 5.224-8.035 5.224-12.867v-9.104c6.121-2.325 10.671-7.829 11.635-14.494h94.155v204.808zm-22.788-53.146 42.419-24.49v48.362c0 .382-.206.738-.536.929l-41.883 24.18zm-7.5-12.99-42.419-24.49 41.884-24.182c.323-.188.733-.195 1.071 0l41.883 24.182zm-49.919-11.5 42.419 24.49v48.981l-41.883-24.18c-.331-.19-.536-.547-.536-.929zm57.261-94.566h-14.684l-6.414-6.597c-.632-.649-.979-1.507-.979-2.412v-7.898h29.47v7.898c0 .905-.348 1.763-.979 2.411zm19.238-35.233c0 1.834-1.492 3.326-3.326 3.326h-46.509c-1.834 0-3.326-1.492-3.326-3.326v-40.457c0-1.834 1.492-3.326 3.326-3.326h46.509c1.834 0 3.326 1.492 3.326 3.326zm15-30.297h93.945v17.924h-93.945zm93.945-15h-94.615c-2.131-7.761-9.228-13.486-17.656-13.486h-46.509c-8.428 0-15.526 5.726-17.656 13.486h-94.614v-37.419c0-1.092.889-1.98 1.981-1.98h267.088c1.092 0 1.981.889 1.981 1.98zm-356.474-24.562h30.304v277.294h-50.355v-257.244c0-11.055 8.995-20.05 20.051-20.05zm330.558 412.407c0 6.932-5.639 12.571-12.571 12.571h-194.077c-6.932 0-12.571-5.64-12.571-12.571s5.639-12.57 12.571-12.57h194.077c6.932 0 12.571 5.638 12.571 12.57zm-60.597-27.57h-98.025c6.996-11.55 11.792-24.294 14.151-37.648h69.722c2.36 13.354 7.156 26.098 14.152 37.648zm171.937-52.649c-2.347 0-434.149 0-441.897 0-11.056 0-20.051-8.995-20.051-20.052v-19.843h482v19.843c-.001 11.057-8.996 20.052-20.052 20.052z"/></g></svg>