<svg id="Capa_1" enable-background="new 0 0 512 512" height="512" viewBox="0 0 512 512" width="512" xmlns="http://www.w3.org/2000/svg"><g><g><path d="m505.082 337.615c-4.113-.548-7.892 2.34-8.441 6.453-8.956 67.097-66.449 118.447-135.509 118.447-75.387 0-136.718-61.331-136.718-136.718s61.332-136.717 136.718-136.717c69.823 0 128.241 52.254 135.887 121.547.455 4.124 4.167 7.096 8.291 6.644 4.124-.455 7.099-4.167 6.644-8.291-7.019-63.623-53.46-115.834-115.219-130.707 3.939-4.919 6.297-11.155 6.297-17.932 0-8.398-3.621-15.967-9.384-21.226 5.763-5.259 9.384-12.828 9.384-21.226 0-4.963-1.264-9.635-3.488-13.713h22.281c19.221 0 34.858-15.637 34.858-34.858s-15.638-34.858-34.858-34.858h-386.967c-19.22-.001-34.858 15.637-34.858 34.857s15.638 34.858 34.858 34.858h22.281c-2.223 4.078-3.488 8.751-3.488 13.713 0 8.398 3.621 15.966 9.384 21.226-5.763 5.259-9.384 12.828-9.384 21.226s3.621 15.967 9.384 21.226c-5.763 5.259-9.384 12.828-9.384 21.226s3.621 15.967 9.384 21.226c-5.763 5.259-9.384 12.828-9.384 21.226s3.621 15.967 9.384 21.226c-5.763 5.259-9.384 12.828-9.384 21.226s3.621 15.967 9.384 21.226c-5.763 5.259-9.384 12.828-9.384 21.226 0 4.962 1.264 9.635 3.488 13.713h-22.281c-19.22.001-34.858 15.639-34.858 34.859s15.638 34.858 34.858 34.858h86.659v26.082c0 15.847 12.892 28.739 28.739 28.739 15.846 0 28.739-12.892 28.739-28.739v-26.082h58.425c27.528 38.684 72.724 63.963 123.713 63.963 76.822 0 140.481-57.152 150.402-131.485.549-4.113-2.34-7.892-6.453-8.441zm-327.658 6.247c-2.598-10.672-8.284-20.149-16.055-27.426h48.306c-.56 9.154-.298 18.347.784 27.426zm-162.398-274.545c0-10.936 8.897-19.833 19.833-19.833h386.966c10.936 0 19.833 8.897 19.833 19.833s-8.898 19.833-19.834 19.833h-386.966c-10.935 0-19.832-8.897-19.832-19.833zm53.651 91.024c0-7.562 6.152-13.713 13.713-13.713h29.065c4.149 0 7.513-3.364 7.513-7.513s-3.364-7.513-7.513-7.513h-29.065c-7.562 0-13.713-6.152-13.713-13.713 0-7.562 6.152-13.713 13.713-13.713h291.902c7.562 0 13.713 6.152 13.713 13.713s-6.152 13.713-13.713 13.713h-227.687c-4.149 0-7.513 3.364-7.513 7.513s3.364 7.513 7.513 7.513h227.687c7.562 0 13.713 6.152 13.713 13.713 0 7.562-6.152 13.713-13.713 13.713h-291.902c-7.562 0-13.713-6.152-13.713-13.713zm0 42.451c0-7.561 6.152-13.713 13.713-13.713h212.933c-14.559 7.036-27.83 16.331-39.356 27.426h-173.577c-7.562.001-13.713-6.151-13.713-13.713zm0 42.453c0-7.562 6.152-13.713 13.713-13.713h159.91c-6.723 8.458-12.564 17.647-17.382 27.427h-142.528c-7.562-.001-13.713-6.152-13.713-13.714zm0 42.452c0-7.561 6.152-13.713 13.713-13.713h136.11c-3.204 8.794-5.617 17.965-7.152 27.426h-128.958c-7.562 0-13.713-6.152-13.713-13.713zm-33.819 110.856c-10.936 0-19.833-8.897-19.833-19.832s8.897-19.833 19.833-19.833h80.614c3.333 0 6.045 2.712 6.045 6.045v33.62zm129.111 41.107c0 7.562-6.152 13.713-13.713 13.713-7.562 0-13.713-6.152-13.713-13.713v-74.727c0-11.618-9.452-21.071-21.071-21.071h-33.082c-7.562 0-13.713-6.152-13.713-13.713s6.152-13.713 13.713-13.713h41.002c22.374 0 40.577 18.203 40.577 40.577zm15.026-41.107v-39.665h34.028c3.137 14.051 8.228 27.373 14.973 39.665z"/><path d="m294.512 287.668c-1.396-3.392-4.666-5.582-8.333-5.582h-.011c-3.671.004-6.941 2.202-8.331 5.6-.023.056-.045.113-.067.17l-24.832 65.201c-1.477 3.878.469 8.218 4.347 9.695 3.879 1.477 8.218-.47 9.695-4.347l4.342-11.4h29.527l4.294 11.378c1.475 3.907 5.824 5.833 9.682 4.377 3.882-1.465 5.842-5.8 4.377-9.682l-24.607-65.204c-.028-.068-.055-.137-.083-.206zm-17.468 44.312 9.108-23.915 9.025 23.915z"/><path d="m365.105 282.087h-19.21c-4.149 0-7.513 3.364-7.513 7.513v66.132c0 4.143 3.36 7.513 7.513 7.513h.033s17.663-.079 22.531-.079c13.958 0 25.314-11.356 25.314-25.314 0-8.195-3.915-15.493-9.972-20.122 2.543-3.67 4.034-8.121 4.034-12.913 0-12.534-10.196-22.73-22.73-22.73zm0 15.025c4.248 0 7.705 3.456 7.705 7.704s-3.456 7.704-7.705 7.704c-.267 0-.411-.002-11.697.018v-15.426zm3.355 51.028c-2.758 0-9.61.025-15.052.047v-20.605c8.655-.034 4.42-.009 15.052-.018 5.673 0 10.288 4.615 10.288 10.288 0 5.672-4.615 10.288-10.288 10.288z"/><path d="m439.727 348.219c-6.782 0-13.316-2.742-17.479-7.335-2.786-3.074-7.537-3.308-10.612-.521-3.075 2.786-3.308 7.537-.521 10.612 6.964 7.684 17.66 12.27 28.612 12.27 28.537 0 40.137-35.378 8.342-47.106-8.249-3.043-15.92-6.359-18.138-7.332-3.452-2.667-2.715-9.007 3.817-10.974 9.727-2.931 18.667 4.163 18.894 4.346 3.175 2.637 7.89 2.218 10.55-.946 2.67-3.176 2.259-7.915-.917-10.585-.611-.514-15.18-12.527-32.861-7.202-20.911 6.298-20.78 32.319-6.245 38.801.382.171 9.466 4.214 19.7 7.989 16.476 6.077 7.938 17.983-3.142 17.983z"/></g></g></svg>