<svg id="Capa_1" enable-background="new 0 0 512 512" height="512" viewBox="0 0 512 512" width="512" xmlns="http://www.w3.org/2000/svg"><g><path d="m435.72 25.79h-132.104l-36.829-23.938c-2.484-1.615-5.689-1.616-8.174 0l-36.832 23.938h-145.501c-42.061 0-76.28 34.224-76.28 76.29v232.06c0 42.066 34.219 76.29 76.28 76.29h89.137v30.772h-14.131c-19.342 0-35.078 15.736-35.078 35.079s15.736 35.079 35.078 35.079h209.428c19.342 0 35.078-15.736 35.078-35.079 0-19.342-15.736-35.078-35.078-35.078h-14.131v-30.773h32.067c4.143 0 7.5-3.358 7.5-7.5s-3.357-7.5-7.5-7.5h-302.37c-33.79 0-61.28-27.495-61.28-61.29v-232.06c0-33.795 27.49-61.29 61.28-61.29h122.422l-35.75 23.235h-86.662c-20.98 0-38.05 17.069-38.05 38.05v232.06c0 20.981 17.069 38.05 38.05 38.05h359.42c20.98 0 38.05-17.069 38.05-38.05v-232.06c0-20.981-17.069-38.05-38.05-38.05h-73.271l-35.746-23.235h109.027c33.79 0 61.28 27.495 61.28 61.29v232.06c0 33.795-27.49 61.29-61.28 61.29h-27.07c-4.143 0-7.5 3.358-7.5 7.5s3.357 7.5 7.5 7.5h27.069c42.062 0 76.28-34.224 76.28-76.29v-232.06c.001-42.066-34.218-76.29-76.279-76.29zm-54.928 450.491c0 11.071-9.007 20.079-20.078 20.079h-209.428c-11.071 0-20.078-9.007-20.078-20.079 0-11.071 9.007-20.078 20.078-20.078h209.428c11.071-.001 20.078 9.007 20.078 20.078zm-49.209-35.079h-151.166v-30.772h151.166zm-68.883-424.117 111.378 72.395-111.378 72.395-39.163-25.454c-3.47-2.256-8.117-1.272-10.375 2.202-2.258 3.473-1.272 8.118 2.201 10.375l39.832 25.888v129.785l-110.145-71.586v-129.786l45.514 29.579c3.475 2.256 8.117 1.272 10.376-2.202 2.257-3.473 1.271-8.118-2.202-10.375l-47.426-30.821zm87.087 185.03c-.799-2.129 1.161-3.753 3.016-3.016l71.88 29.859c2.117 1.049 1.941 3.612-.3 4.362l-22.202 5.824c-6.034 1.583-10.767 6.315-12.35 12.35l-5.823 22.202c-.749 2.24-3.313 2.419-4.362.3zm8.77-16.869c-6.494-2.698-13.903-1.228-18.877 3.745-4.973 4.973-6.443 12.382-3.745 18.877l17.688 42.579-83.427 54.231v-129.785l110.144-71.593v90.995zm77.153-106.221c12.71 0 23.05 10.34 23.05 23.05v232.06c0 12.71-10.34 23.05-23.05 23.05h-359.42c-12.71 0-23.05-10.34-23.05-23.05v-232.06c0-12.71 10.34-23.05 23.05-23.05h63.583l-6.411 4.167c-2.127 1.382-3.411 3.747-3.413 6.284v147.68c0 2.539 1.284 4.905 3.413 6.289l125.15 81.34c2.486 1.615 5.689 1.615 8.175 0l92.686-60.249 6.32 15.215c2.734 6.584 8.895 10.67 15.915 10.67.415 0 .833-.014 1.254-.043 7.533-.518 13.639-5.571 15.555-12.875l5.823-22.201c.211-.805.842-1.436 1.646-1.647l22.202-5.824c7.304-1.916 12.356-8.021 12.874-15.555.518-7.533-3.654-14.272-10.627-17.168l-35.097-14.579v-111.054c-.002-2.537-1.285-4.901-3.413-6.284l-6.41-4.167h50.195z"/></g></svg>