<svg id="Capa_1" enable-background="new 0 0 512 512" height="512" viewBox="0 0 512 512" width="512" xmlns="http://www.w3.org/2000/svg"><g><path d="m465.605 40.833h-419.21c-25.583 0-46.395 20.813-46.395 46.395v257.727c0 25.583 20.812 46.396 46.395 46.396h157.734c5.338 0 10.493 1.746 14.702 4.896-20.383 7.06-32.831 19.75-32.831 34.538 0 23.022 30.093 40.383 70 40.383s70-17.361 70-40.383c0-14.769-12.456-27.471-32.834-34.536 4.21-3.151 9.366-4.898 14.705-4.898h157.734c25.582 0 46.395-20.813 46.395-46.396v-257.727c0-25.582-20.813-46.395-46.395-46.395zm-159.605 389.951c0 8.311-19.478 20.383-50 20.383s-50-12.072-50-20.383c0-6.113 10.435-14.177 28.157-18.091l14.38 16.12c1.897 2.126 4.612 3.343 7.462 3.343s5.565-1.216 7.462-3.343l14.38-16.119c17.718 3.915 28.159 11.995 28.159 18.09zm186-85.829c0 14.555-11.841 26.396-26.395 26.396h-157.734c-12.677 0-24.788 5.425-33.227 14.885l-18.644 20.898-18.644-20.899c-8.439-9.459-20.55-14.885-33.227-14.885h-157.734c-14.554 0-26.395-11.841-26.395-26.395v-257.727c0-14.554 11.841-26.395 26.395-26.395h419.21c14.554 0 26.395 11.841 26.395 26.395z"/><path d="m321.986 195.733c-1.855-5.711-6.402-10.134-12.162-11.832l-24.42-7.199-14.393-21c-3.395-4.953-9.006-7.91-15.011-7.91s-11.617 2.957-15.011 7.91l-14.393 21-24.42 7.199c-5.76 1.698-10.306 6.121-12.162 11.832s-.777 11.962 2.885 16.722l15.525 20.177-.7 25.45c-.165 6.002 2.637 11.693 7.495 15.223 3.153 2.291 6.904 3.477 10.695 3.477 2.05 0 4.113-.347 6.099-1.053l23.987-8.53 23.987 8.53c5.657 2.014 11.936 1.106 16.794-2.423s7.66-9.22 7.495-15.223l-.7-25.45 15.525-20.177c3.662-4.761 4.741-11.012 2.885-16.723zm-36.429 27.52c-1.403 1.823-2.134 4.074-2.071 6.373l.725 26.376-24.861-8.84c-2.167-.771-4.534-.771-6.701 0l-24.861 8.84.725-26.376c.063-2.299-.668-4.55-2.071-6.373l-16.09-20.912 25.31-7.461c2.206-.65 4.121-2.041 5.421-3.938l14.917-21.766 14.917 21.766c1.3 1.897 3.215 3.288 5.421 3.938l25.31 7.461z"/><path d="m128.292 275.728c5.66 2.012 11.938 1.106 16.794-2.423 4.858-3.529 7.66-9.22 7.495-15.223l-.7-25.45 15.525-20.177c3.662-4.759 4.74-11.01 2.884-16.721-1.855-5.711-6.402-10.135-12.162-11.833l-24.42-7.199-14.392-21.001c-3.395-4.953-9.007-7.91-15.011-7.91-6.005 0-11.617 2.957-15.012 7.91l-14.393 21-24.42 7.199c-5.76 1.698-10.307 6.121-12.162 11.833-1.855 5.711-.777 11.962 2.885 16.721l15.525 20.177-.7 25.45c-.165 6.002 2.637 11.693 7.495 15.223 3.153 2.291 6.904 3.477 10.696 3.477 2.05 0 4.113-.347 6.098-1.053l23.987-8.53zm-52.198-19.725.725-26.376c.063-2.299-.668-4.55-2.071-6.373l-16.09-20.912 25.31-7.461c2.206-.65 4.121-2.042 5.421-3.938l14.917-21.766 14.917 21.766c1.3 1.897 3.215 3.288 5.421 3.938l25.31 7.461-16.09 20.912c-1.403 1.823-2.134 4.074-2.071 6.373l.725 26.376-24.861-8.84c-1.084-.385-2.217-.578-3.351-.578s-2.267.193-3.351.578z"/><path d="m461.519 183.901-24.42-7.199-14.393-21.001c-3.395-4.953-9.007-7.91-15.012-7.91-6.004 0-11.616 2.957-15.011 7.91l-14.392 21-24.42 7.199c-5.76 1.698-10.307 6.121-12.162 11.833-1.855 5.711-.777 11.962 2.885 16.721l15.525 20.177-.7 25.45c-.165 6.002 2.637 11.693 7.495 15.223 3.153 2.291 6.904 3.477 10.696 3.477 2.05 0 4.112-.347 6.098-1.053l23.987-8.53 23.986 8.53c5.66 2.012 11.937 1.106 16.794-2.423 4.858-3.529 7.66-9.22 7.495-15.223l-.7-25.45 15.525-20.177c3.662-4.759 4.74-11.01 2.884-16.721-1.854-5.712-6.401-10.135-12.16-11.833zm-24.267 39.352c-1.403 1.823-2.134 4.074-2.071 6.373l.725 26.376-24.861-8.84c-1.084-.386-2.217-.578-3.351-.578-1.133 0-2.267.193-3.351.578l-24.861 8.84.725-26.376c.063-2.299-.668-4.55-2.071-6.373l-16.09-20.912 25.31-7.461c2.206-.65 4.121-2.042 5.421-3.938l14.917-21.766 14.917 21.766c1.3 1.897 3.215 3.288 5.421 3.938l25.31 7.461z"/><path d="m404.765 320.954h-297.53c-5.523 0-10 4.477-10 10s4.477 10 10 10h297.529c5.523 0 10-4.477 10-10s-4.476-10-9.999-10z"/><path d="m107.235 100.993h297.529c5.523 0 10-4.477 10-10s-4.477-10-10-10h-297.529c-5.523 0-10 4.477-10 10s4.477 10 10 10z"/></g></svg>